<svg version="1.1" id="tab-svg" xmlns="http://www.w3.org/2000/svg" x="0" y="0" viewBox="0 0 512 512" xml:space="preserve" opacity="1"><style></style><path class="prefix__st0" d="M378.418 0H195.122l-9.319 9.301L57.001 138.102l-9.301 9.309V426.1c0 47.357 38.534 85.9 85.9 85.9h244.819c47.348 0 85.882-38.542 85.882-85.9V85.882C464.3 38.524 425.767 0 378.418 0zm54.079 426.1c0 29.875-24.212 54.096-54.078 54.096H133.6c-29.875 0-54.096-24.221-54.096-54.096V160.587h83.719c24.882 0 45.073-20.183 45.073-45.074V31.802h170.123c29.866 0 54.078 24.222 54.078 54.079V426.1z"/><path class="prefix__st0" d="M342.716 159.423c-7.668 5.367-17.004 8.537-27.052 8.537-10.056 0-19.384-3.17-27.061-8.537-13.418 5.775-21.66 15.902-26.688 24.847-6.679 11.864-1.442 28.659 10.092 28.659h87.306c11.542 0 16.787-16.795 10.1-28.659-5.029-8.946-13.271-19.072-26.697-24.847zM315.663 156.722c19.723 0 35.694-15.971 35.694-35.685v-8.554c0-19.696-15.971-35.694-35.694-35.694-19.714 0-35.702 15.998-35.702 35.694v8.554c0 19.714 15.989 35.685 35.702 35.685zM139.635 260.373h230.394v22.371H139.635zM139.635 327.488h230.394v22.38H139.635zM139.635 394.61h161.281v22.363H139.635z"/></svg>