<svg version="1.1" id="tab-svg" xmlns="http://www.w3.org/2000/svg" x="0" y="0" viewBox="0 0 512 512" xml:space="preserve" opacity="1"><style></style><path class="prefix__st0" d="M256 79.553c9.902 0 16.652-21.627 19.222-43.438C278.44 8.79 266.897 0 256 0c-10.914 0-22.441 8.79-19.24 36.115 2.572 21.811 9.305 43.438 19.24 43.438zM256 432.439c-9.936 0-16.669 21.628-19.24 43.446C233.56 503.202 245.087 512 256 512c10.897 0 22.44-8.798 19.222-36.115-2.57-21.818-9.32-43.446-19.222-43.446zM167.134 102.964c8.591-4.935 3.632-27.068-5.058-47.22-10.88-25.268-25.26-27.101-34.714-21.661-9.454 5.465-15.026 18.842 1.394 40.908 13.151 17.581 29.786 32.94 38.378 27.973zM344.849 409.036c-8.574 4.926-3.632 27.06 5.042 47.228 10.897 25.26 25.277 27.092 34.73 21.644 9.438-5.448 15.044-18.842-1.392-40.9-13.136-17.58-29.788-32.931-38.38-27.972zM74.967 128.762c-22.042-16.419-35.427-10.822-40.884-1.384-5.456 9.453-3.615 23.825 21.645 34.722 20.168 8.683 42.293 13.617 47.236 5.059 4.959-8.6-10.416-25.261-27.997-38.397zM456.239 349.908c-20.135-8.699-42.277-13.625-47.219-5.066-4.96 8.6 10.415 25.26 27.997 38.395 22.058 16.42 35.426 10.83 40.867 1.385 5.473-9.446 3.632-23.825-21.645-34.714zM79.545 255.992c0-9.902-21.645-16.644-43.438-19.223C8.79 233.56.016 245.103.016 255.992c0 10.921 8.774 22.448 36.091 19.248 21.793-2.563 43.438-9.322 43.438-19.248zM475.876 236.76c-21.794 2.588-43.422 9.322-43.422 19.232 0 9.926 21.628 16.669 43.422 19.239 27.334 3.218 36.108-8.326 36.108-19.239 0-10.905-8.774-22.432-36.108-19.232zM55.728 349.908c-25.26 10.889-27.101 25.268-21.645 34.714 5.474 9.445 18.842 15.035 40.884-1.385 17.581-13.135 32.939-29.796 27.98-38.395-4.926-8.559-27.051-3.633-47.219 5.066zM456.239 162.1c25.277-10.897 27.118-25.268 21.645-34.722-5.441-9.454-18.809-15.035-40.867 1.384-17.582 13.136-32.956 29.796-27.997 38.396 4.942 8.558 27.084 3.625 47.219-5.058zM128.755 437.008c-16.42 22.058-10.848 35.452-1.394 40.9 9.47 5.448 23.834 3.616 34.714-21.644 8.69-20.168 13.65-42.302 5.058-47.228-8.574-4.959-25.226 10.392-38.378 27.972zM383.229 74.992c16.436-22.067 10.864-35.443 1.392-40.908-9.453-5.44-23.833-3.608-34.73 21.661-8.674 20.152-13.634 42.285-5.042 47.22 8.575 4.966 25.244-10.393 38.38-27.973zM235.135 176.123c7.48-1.99 8.177-19.563 5.706-36.463-3.068-21.156-13.5-25.451-21.677-23.229-8.21 2.148-15.11 11.08-7.215 30.949 6.335 15.873 15.773 30.775 23.186 28.743zM276.848 335.852c-7.414 2.007-8.16 19.638-5.705 36.514 3.084 21.155 13.517 25.442 21.71 23.219 8.193-2.197 15.092-11.096 7.198-30.94-6.319-15.873-15.756-30.775-23.203-28.793zM153.815 154.139c-5.954 6.02-7.497 17.133 9.305 30.426 13.368 10.548 29.008 18.742 34.415 13.294 5.457-5.466-2.704-21.073-13.252-34.441-13.251-16.792-24.463-15.266-30.468-9.279zM358.135 357.869c6.004-5.996 7.53-17.15-9.254-30.434-13.402-10.548-28.976-18.709-34.432-13.277-5.424 5.44 2.736 21.063 13.302 34.44 13.251 16.776 24.396 15.259 30.384 9.271zM139.469 240.6c16.901 2.463 34.515 1.749 36.472-5.714 2.024-7.439-12.888-16.876-28.742-23.187-19.853-7.894-28.727-.987-30.95 7.198-2.206 8.161 2.073 18.61 23.22 21.703zM372.515 271.416c-16.885-2.438-34.466-1.733-36.489 5.689-1.99 7.448 12.904 16.859 28.76 23.187 19.869 7.911 28.776.987 30.966-7.19 2.222-8.194-2.058-18.617-23.237-21.686zM147.38 300.068c15.856-6.327 30.767-15.781 28.76-23.245-1.991-7.397-19.604-8.119-36.489-5.656-21.164 3.06-25.442 13.509-23.236 21.669 2.189 8.203 11.096 15.102 30.965 7.232zM364.603 211.948c-15.856 6.369-30.75 15.765-28.744 23.196 1.991 7.446 19.588 8.168 36.489 5.713 21.164-3.084 25.442-13.534 23.237-21.686-2.205-8.217-11.096-15.117-30.982-7.223zM163.368 327.75c-16.751 13.227-15.225 24.447-9.221 30.41 6.004 5.979 17.166 7.514 30.418-9.272 10.532-13.368 18.725-28.967 13.285-34.432-5.472-5.448-21.08 2.72-34.482 13.294zM348.598 184.283c16.785-13.26 15.243-24.464 9.288-30.426-5.988-6.012-17.182-7.521-30.418 9.271-10.582 13.394-18.742 29.008-13.302 34.424 5.44 5.448 21.048-2.729 34.432-13.269zM234.87 336.035c-7.414-1.991-16.851 12.886-23.17 28.759-7.912 19.87-1.028 28.801 7.198 30.957 8.194 2.222 18.626-2.065 21.694-23.22 2.471-16.893 1.724-34.498-5.722-36.496zM293.102 116.249c-8.177-2.222-18.626 2.065-21.677 23.22-2.472 16.918-1.742 34.498 5.688 36.496 7.43 2.024 16.868-12.895 23.186-28.734 7.896-19.878 1.029-28.767-7.197-30.982zM214.536 255.992c0 22.904 18.56 41.464 41.465 41.464 22.888 0 41.464-18.56 41.464-41.464 0-22.888-18.576-41.448-41.464-41.448-22.906 0-41.465 18.56-41.465 41.448z"/></svg>