<svg version="1.1" id="tab-svg" xmlns="http://www.w3.org/2000/svg" x="0" y="0" viewBox="0 0 512 512" xml:space="preserve" opacity="1"><style></style><path class="prefix__st0" d="M505.604 112.227L399.764 6.397C395.701 2.333 390.079 0 384.332 0H76.956a76.943 76.943 0 0 0-29.964 6.055A77.222 77.222 0 0 0 13.154 33.92 77.179 77.179 0 0 0 3.46 54.082 77.056 77.056 0 0 0 0 76.947v358.096a76.83 76.83 0 0 0 6.055 29.956 77.246 77.246 0 0 0 27.865 33.847 77 77 0 0 0 20.162 9.694A77.039 77.039 0 0 0 76.956 512h358.087a76.72 76.72 0 0 0 29.956-6.063 77.077 77.077 0 0 0 43.541-48.019 76.99 76.99 0 0 0 3.46-22.874V127.669c0-5.748-2.324-11.37-6.396-15.442zM279.789 44.1h51.668v63.497h-51.668V44.1zm188.553 390.944c0 4.649-.936 8.974-2.603 12.955-2.514 5.947-6.766 11.063-12.099 14.668a32.966 32.966 0 0 1-8.694 4.18 32.953 32.953 0 0 1-9.902 1.495H76.956c-4.658 0-8.972-.937-12.946-2.612a33.516 33.516 0 0 1-14.676-12.09 33.22 33.22 0 0 1-4.181-8.694 32.985 32.985 0 0 1-1.495-9.902V76.947c0-4.649.937-8.973 2.604-12.937 2.513-5.955 6.774-11.082 12.099-14.676a32.713 32.713 0 0 1 8.685-4.172 33.05 33.05 0 0 1 9.91-1.495h64.587v89.299h228.922V43.668h4.829l93.046 93.046v298.33z"/><path class="prefix__st0" d="M112.768 220.275h286.474V413.44H112.768z"/></svg>