<svg xmlns="http://www.w3.org/2000/svg" width="160" height="160" viewBox="0 0 500 500"><path fill="none" stroke="#000" d="M102.58 161H74.06v-45h5.99v40h22.53v5zm44.01 0h-6.39l-4.42-13h-19.5l-4.42 13h-6.08l16.42-45h7.99l16.4 45zm-12.65-18l-7.89-21.77-7.94 21.77h15.83zm50.61-13.52c0 1.98-.35 3.82-1.05 5.52-.7 1.69-1.67 3.15-2.92 4.39-1.56 1.53-3.39 2.68-5.52 3.45-2.11.78-4.79 1.16-8.01 1.16h-6v17h-5.99v-45h12.24c2.69 0 4.98.23 6.86.67 1.88.45 3.55 1.15 5 2.11 1.72 1.15 3.04 2.57 3.98 4.27.94 1.7 1.41 3.84 1.41 6.43zm-6.24.14c0-1.55-.27-2.89-.83-4.04-.54-1.16-1.36-2.1-2.46-2.83-.97-.63-2.08-1.07-3.33-1.34-1.24-.27-2.81-.41-4.71-.41h-5.93v18h5.06c2.41 0 4.38-.21 5.89-.64 1.52-.44 2.75-1.13 3.7-2.08.95-.97 1.62-1.98 2.02-3.05.39-1.07.59-2.27.59-3.61zM111.36 220h-7.78L88.5 202h-8.45v18h-5.99v-45h12.63c2.72 0 5 .18 6.81.53 1.81.35 3.45.97 4.91 1.88 1.63 1.02 2.91 2.31 3.82 3.87.92 1.56 1.38 3.52 1.38 5.91 0 3.23-.82 5.93-2.45 8.11-1.64 2.18-3.89 3.82-6.75 4.92L111.36 220zm-14.03-32.47c0-1.29-.23-2.44-.69-3.44-.45-1-1.2-1.83-2.25-2.51-.87-.58-1.9-.99-3.09-1.22-1.19-.24-2.59-.36-4.21-.36h-7.04v17h6.04c1.9 0 3.55-.16 4.97-.5 1.42-.33 2.62-.95 3.61-1.86.91-.84 1.57-1.81 2-2.91.44-1.1.66-2.5.66-4.2zM154.59 220h-6.39l-4.42-13h-19.5l-4.42 13h-6.08l16.42-45h7.99l16.4 45zm-12.65-18l-7.89-21.77-7.94 21.77h15.83zm53.87 5.23c0 1.78-.41 3.53-1.23 5.25-.81 1.72-1.96 3.18-3.42 4.38-1.62 1.3-3.5 2.32-5.66 3.05-2.15.72-4.73 1.09-7.77 1.09-3.24 0-6.15-.3-8.75-.91-2.59-.59-5.23-1.47-7.92-2.65V210h.42c2.29 1.92 4.92 3.4 7.91 4.44 2.99 1.04 5.79 1.56 8.41 1.56 3.72 0 6.61-.72 8.67-2.16 2.07-1.44 3.11-3.36 3.11-5.76 0-2.01-.49-3.49-1.47-4.44-.98-.96-2.47-1.7-4.47-2.23-1.51-.41-3.15-.74-4.92-1-1.76-.27-3.63-.61-5.61-1.02-4-.84-6.97-2.3-8.89-4.36-1.93-2.06-2.89-4.75-2.89-8.06 0-3.79 1.59-6.9 4.78-9.33 3.19-2.43 7.23-3.64 12.14-3.64 3.18 0 6.08.3 8.72.89 2.64.59 4.99 1.32 7.03 2.19V184h-.42c-1.72-1.44-3.98-2.63-6.78-3.58a26.8 26.8 0 0 0-8.58-1.42c-3.21 0-5.79.7-7.74 2.08-1.94 1.37-2.92 3.15-2.92 5.31 0 1.89.49 3.37 1.46 4.45.96 1.08 2.67 1.9 5.12 2.47 1.29.28 3.13.63 5.5 1.03 2.38.41 4.41.83 6.06 1.25 3.35.9 5.87 2.25 7.57 4.07 1.69 1.8 2.54 4.32 2.54 7.57z"/></svg>