<?xml version="1.0" encoding="UTF-8" standalone="no"?>
<!DOCTYPE svg PUBLIC "-//W3C//DTD SVG 20010904//EN"
              "http://www.w3.org/TR/2001/REC-SVG-20010904/DTD/svg10.dtd">

<svg xmlns="http://www.w3.org/2000/svg"
     width="1.66667in" height="1.66667in"
     viewBox="0 0 500 500">
  <path id="LAP ..."
        fill="none" stroke="black" stroke-width="1"
        d="M 102.58,161.00
           C 102.58,161.00 74.06,161.00 74.06,161.00
             74.06,161.00 74.06,116.00 74.06,116.00
             74.06,116.00 80.05,116.00 80.05,116.00
             80.05,116.00 80.05,156.00 80.05,156.00
             80.05,156.00 102.58,156.00 102.58,156.00
             102.58,156.00 102.58,161.00 102.58,161.00 Z
           M 146.59,161.00
           C 146.59,161.00 140.20,161.00 140.20,161.00
             140.20,161.00 135.78,148.00 135.78,148.00
             135.78,148.00 116.28,148.00 116.28,148.00
             116.28,148.00 111.86,161.00 111.86,161.00
             111.86,161.00 105.78,161.00 105.78,161.00
             105.78,161.00 122.20,116.00 122.20,116.00
             122.20,116.00 130.19,116.00 130.19,116.00
             130.19,116.00 146.59,161.00 146.59,161.00 Z
           M 133.94,143.00
           C 133.94,143.00 126.05,121.23 126.05,121.23
             126.05,121.23 118.11,143.00 118.11,143.00
             118.11,143.00 133.94,143.00 133.94,143.00 Z
           M 184.55,129.48
           C 184.55,131.46 184.20,133.30 183.50,135.00
             182.80,136.69 181.83,138.15 180.58,139.39
             179.02,140.92 177.19,142.07 175.06,142.84
             172.95,143.62 170.27,144.00 167.05,144.00
             167.05,144.00 161.05,144.00 161.05,144.00
             161.05,144.00 161.05,161.00 161.05,161.00
             161.05,161.00 155.06,161.00 155.06,161.00
             155.06,161.00 155.06,116.00 155.06,116.00
             155.06,116.00 167.30,116.00 167.30,116.00
             169.99,116.00 172.28,116.23 174.16,116.67
             176.04,117.12 177.71,117.82 179.16,118.78
             180.88,119.93 182.20,121.35 183.14,123.05
             184.08,124.75 184.55,126.89 184.55,129.48 Z
           M 178.31,129.62
           C 178.31,128.07 178.04,126.73 177.48,125.58
             176.94,124.42 176.12,123.48 175.02,122.75
             174.05,122.12 172.94,121.68 171.69,121.41
             170.45,121.14 168.88,121.00 166.98,121.00
             166.98,121.00 161.05,121.00 161.05,121.00
             161.05,121.00 161.05,139.00 161.05,139.00
             161.05,139.00 166.11,139.00 166.11,139.00
             168.52,139.00 170.49,138.79 172.00,138.36
             173.52,137.92 174.75,137.23 175.70,136.28
             176.65,135.31 177.32,134.30 177.72,133.23
             178.11,132.16 178.31,130.96 178.31,129.62 Z
           M 111.36,220.00
           C 111.36,220.00 103.58,220.00 103.58,220.00
             103.58,220.00 88.50,202.00 88.50,202.00
             88.50,202.00 80.05,202.00 80.05,202.00
             80.05,202.00 80.05,220.00 80.05,220.00
             80.05,220.00 74.06,220.00 74.06,220.00
             74.06,220.00 74.06,175.00 74.06,175.00
             74.06,175.00 86.69,175.00 86.69,175.00
             89.41,175.00 91.69,175.18 93.50,175.53
             95.31,175.88 96.95,176.50 98.41,177.41
             100.04,178.43 101.32,179.72 102.23,181.28
             103.15,182.84 103.61,184.80 103.61,187.19
             103.61,190.42 102.79,193.12 101.16,195.30
             99.52,197.48 97.27,199.12 94.41,200.22
             94.41,200.22 111.36,220.00 111.36,220.00 Z
           M 97.33,187.53
           C 97.33,186.24 97.10,185.09 96.64,184.09
             96.19,183.09 95.44,182.26 94.39,181.58
             93.52,181.00 92.49,180.59 91.30,180.36
             90.11,180.12 88.71,180.00 87.09,180.00
             87.09,180.00 80.05,180.00 80.05,180.00
             80.05,180.00 80.05,197.00 80.05,197.00
             80.05,197.00 86.09,197.00 86.09,197.00
             87.99,197.00 89.64,196.84 91.06,196.50
             92.48,196.17 93.68,195.55 94.67,194.64
             95.58,193.80 96.24,192.83 96.67,191.73
             97.11,190.63 97.33,189.23 97.33,187.53 Z
           M 154.59,220.00
           C 154.59,220.00 148.20,220.00 148.20,220.00
             148.20,220.00 143.78,207.00 143.78,207.00
             143.78,207.00 124.28,207.00 124.28,207.00
             124.28,207.00 119.86,220.00 119.86,220.00
             119.86,220.00 113.78,220.00 113.78,220.00
             113.78,220.00 130.20,175.00 130.20,175.00
             130.20,175.00 138.19,175.00 138.19,175.00
             138.19,175.00 154.59,220.00 154.59,220.00 Z
           M 141.94,202.00
           C 141.94,202.00 134.05,180.23 134.05,180.23
             134.05,180.23 126.11,202.00 126.11,202.00
             126.11,202.00 141.94,202.00 141.94,202.00 Z
           M 195.81,207.23
           C 195.81,209.01 195.40,210.76 194.58,212.48
             193.77,214.20 192.62,215.66 191.16,216.86
             189.54,218.16 187.66,219.18 185.50,219.91
             183.35,220.63 180.77,221.00 177.73,221.00
             174.49,221.00 171.58,220.70 168.98,220.09
             166.39,219.50 163.75,218.62 161.06,217.44
             161.06,217.44 161.06,210.00 161.06,210.00
             161.06,210.00 161.48,210.00 161.48,210.00
             163.77,211.92 166.40,213.40 169.39,214.44
             172.38,215.48 175.18,216.00 177.80,216.00
             181.52,216.00 184.41,215.28 186.47,213.84
             188.54,212.40 189.58,210.48 189.58,208.08
             189.58,206.07 189.09,204.59 188.11,203.64
             187.13,202.68 185.64,201.94 183.64,201.41
             182.13,201.00 180.49,200.67 178.72,200.41
             176.96,200.14 175.09,199.80 173.11,199.39
             169.11,198.55 166.14,197.09 164.22,195.03
             162.29,192.97 161.33,190.28 161.33,186.97
             161.33,183.18 162.92,180.07 166.11,177.64
             169.30,175.21 173.34,174.00 178.25,174.00
             181.43,174.00 184.33,174.30 186.97,174.89
             189.61,175.48 191.96,176.21 194.00,177.08
             194.00,177.08 194.00,184.00 194.00,184.00
             194.00,184.00 193.58,184.00 193.58,184.00
             191.86,182.56 189.60,181.37 186.80,180.42
             184.00,179.48 181.14,179.00 178.22,179.00
             175.01,179.00 172.43,179.70 170.48,181.08
             168.54,182.45 167.56,184.23 167.56,186.39
             167.56,188.28 168.05,189.76 169.02,190.84
             169.98,191.92 171.69,192.74 174.14,193.31
             175.43,193.59 177.27,193.94 179.64,194.34
             182.02,194.75 184.05,195.17 185.70,195.59
             189.05,196.49 191.57,197.84 193.27,199.66
             194.96,201.46 195.81,203.98 195.81,207.23 Z" />
</svg>
