<svg xmlns="http://www.w3.org/2000/svg" viewBox="0 0 635 540"><path d="M32 .09C17.45 3.7 5.98 13.44 1.78 28-.79 36.91 0 51.38 0 61v432c.04 24.39 14.56 42.96 40 43h457c23.9-.04 39.72-17.51 40-41v-73V43C536.96 18.57 522.5.04 497 .09h-74-261-85-45zm80 75.21c11.04-1.1 20.12-.43 30 5.01 34.93 19.24 29.29 71.97-9 83.25-3.49 1.03-11.46 2.39-15 2.12-11.3-.87-22.89-5.52-30.83-13.77-19.53-20.3-16-54.53 7.83-69.82 5.58-3.58 10.51-5.57 17-6.79zM456 456h-78V318c-.03-20.3-5.51-44.46-27-51.9-5.83-2.02-10.94-2.17-17-2.1-4.8.06-9.38.89-14 2.16-23.26 6.4-29.53 28.57-31.09 49.84l-.91 12v128h-78V202h75v34c4.75-2.66 11.57-14.11 18-19.56 19.64-16.65 37.71-21.73 63-21.44 8.37.1 23.97 2.33 32 4.72 37.5 11.13 51.12 40.19 56.13 76.28l1.91 19v15l.96 12v37l-1 13v84zM159 202v254H81V202h78zm431 264.46c-7.26 1.62-13.55 4.28-18.91 9.63-22.72 22.69-7.89 63.14 24.91 63.9 10.97.25 21.99-3.76 29.33-12.16 16.35-18.7 10.37-49.99-13.33-59.37-6.96-2.75-14.66-3.01-22-2zm3 4.84c6.04-.6 11.33-.18 17 2.18 25.68 10.67 25.41 47.73 0 58.64-3.78 1.63-9.89 3.01-14 2.7-28.85-2.19-41.13-37.75-18.99-56.49 4.97-4.2 9.73-5.85 15.99-7.03zm-9 11.7v40h6v-17c12.23.43 9.66 11.38 17.32 15.98 1.94 1.16 4.5.99 6.68 1.02-1.9-5.97-7.14-13-11-18 13.31-1.07 11.27-15.58 6.77-19.35-4.8-4.03-19.33-2.65-25.77-2.65zm6 17v-12c3.62 0 9.77-.4 12.89 1.31 4.19 2.3 4.74 7.14.88 9.52-2.7 1.66-10.38 1.17-13.77 1.17z"/></svg>