<svg viewbox="0 0 512 512" version="1.1" id="prefix___x32_" xmlns="http://www.w3.org/2000/svg" xml:space="preserve" opacity="1"><path class="prefix__st0" d="M334.857 166.955l-65.516-65.531c-39.469 23.672-126.656 62.688-126.656 62.688a62.77 62.77 0 0 0-37.734 46.813L60.826 416.596l-25.313 25.313c-9.125-.109-18.281 3.297-25.234 10.25-13.703 13.688-13.703 35.875 0 49.563 13.688 13.703 35.891 13.703 49.578 0 6.953-6.953 10.359-16.109 10.234-25.219l25.313-25.313 205.688-44.125a62.815 62.815 0 0 0 46.797-37.734s39.047-87.156 62.734-126.609l-65.531-65.531-10.235-10.236zm-64.968 135.172c-15.25 15.25-39.188 16.438-55.813 3.641l-150.64 150.64c-1.094-1.484-2.25-2.922-3.578-4.25-1.344-1.344-2.766-2.5-4.25-3.578l150.641-150.641c-12.813-16.641-11.625-40.563 3.625-55.813 16.578-16.578 43.438-16.578 60.016 0s16.577 43.438-.001 60.001zM511.998 139.705L372.311.002l-45.156 45.156c-15.781 15.781-36.297 11.047-36.297 11.047l-18.953 18.938 66.297 66.297 15.781 15.781 82.875 82.875 18.938-18.938s-4.734-20.516 11.047-36.313c15.796-15.781 45.155-45.14 45.155-45.14z"/></svg>