<svg version="1.1" id="prefix___x32_" xmlns="http://www.w3.org/2000/svg" x="0" y="0" viewBox="0 0 512 512" xml:space="preserve"><path class="prefix__st0" d="M396.479 129.478h.118l.763-.041-.881.041z"/><path class="prefix__st0" d="M433.132 143.576a48.19 48.19 0 0 0-34.163-14.156 42.948 42.948 0 0 0-2.372.058l-9.731.495c2.993-22.095 4.745-43.308 5.507-56.92.461-8.516.252-17.182-.905-25.53-1.148-8.331-3.236-16.353-6.681-23.536-2.296-4.777-5.238-9.202-9.002-12.95-2.958-2.975-6.437-5.514-10.368-7.35-3.94-1.878-8.314-3.068-12.966-3.504-3.11-.285-6.345-.235-9.706.134-5.858.662-11.256 2.129-16.126 4.4-4.879 2.254-9.162 5.322-12.799 8.952-4.116 4.123-7.376 8.96-9.907 14.241-2.548 5.28-4.376 11.03-5.616 17.064-2.482 12.086-2.716 25.456-1.4 39.335a4684.56 4684.56 0 0 1 4.492 50.014l-26.846 1.358a48.382 48.382 0 0 0-31.699 14.098l-163.97 163.97a48.237 48.237 0 0 0-14.165 34.155 48.25 48.25 0 0 0 14.132 34.163l.025.008L194.641 497.86A48.241 48.241 0 0 0 228.796 512a48.262 48.262 0 0 0 34.155-14.14L426.93 333.874a48.368 48.368 0 0 0 14.098-31.7l6.194-122.003c.034-.813.075-1.627.067-2.448a48.232 48.232 0 0 0-14.157-34.147zM314.181 82.65c-.906-9.446-.981-18.44-.076-26.478.871-8.055 2.716-15.103 5.431-20.745 1.81-3.771 4.006-6.923 6.555-9.48 2.271-2.271 4.844-4.082 7.862-5.498 3.025-1.416 6.546-2.413 10.711-2.875 3.436-.385 6.337-.234 8.809.277 2.489.519 4.576 1.391 6.488 2.582a21.369 21.369 0 0 1 3.562 2.866c2.112 2.121 4.015 4.878 5.632 8.231 1.618 3.345 2.934 7.284 3.914 11.609 1.961 8.658 2.54 18.858 1.961 28.941-.561 10.285-1.734 25.296-3.621 41.623-1.852 16.336-4.45 34.022-7.828 49.569-2.254 10.376-4.852 19.832-7.702 27.157-1.618 4.191-3.319 7.661-4.928 10.142-.821 1.316-1.693 2.381-2.456 3.152-.704.696-1.324 1.157-1.81 1.433-.512.276-.846.378-1.082.419a1.869 1.869 0 0 1-.486.026c-.244-.042-.545-.101-1.065-.344-.662-.31-1.65-.964-2.892-2.196-1.19-1.199-2.606-3.067-4.098-5.398 2.053-.688 4.149-1.232 6.278-1.509a78.37 78.37 0 0 0 1.635-3.915c2.858-7.308 5.464-16.754 7.702-27.122 2.306-10.628 4.224-22.212 5.834-33.686l-39.788 2.011c-.872-10.535-2.388-28.061-4.542-50.792zM116.407 341.693l47.332-47.357 9.873 9.866-47.348 47.34-9.857-9.849zm19.396 19.387l47.348-47.331 14.014 14.014-47.356 47.331-14.006-14.014zm23.56 23.569l47.34-47.356 9.857 9.857-47.34 47.348-9.857-9.849zm30.3 30.291l-7.787-7.778 47.34-47.349 7.786 7.787-47.339 47.34zm10.586 10.586l47.348-47.331 13.997 13.997-47.339 47.34-14.006-14.006zm33.408 33.41l-9.856-9.865 47.34-47.332 9.857 9.857-47.341 47.34zm137.427-206.298c-12.983 13.009-34.022 13.009-47.022.008-12.455-12.455-12.832-32.277-1.374-45.336 1.953 3.059 3.982 5.792 6.202 8.021 1.996 1.995 4.116 3.662 6.421 4.937 2.304 1.282 4.819 2.146 7.376 2.498 1.718.243 3.453.243 5.129.008 2.23-.277 4.342-.965 6.252-1.911 2.557-1.258 4.761-2.942 6.689-4.879 1.811-1.81 3.387-3.838 4.786-6.026 1.224-1.903 2.348-3.948 3.403-6.11.712.595 1.467 1.098 2.138 1.768 12.991 13.018 12.991 34.056 0 47.022z"/></svg>