<svg version="1.1" id="tab-svg" xmlns="http://www.w3.org/2000/svg" x="0" y="0" viewBox="0 0 512 512" xml:space="preserve" opacity="1"><style></style><path class="prefix__st0" d="M483.503 450.076h-6.333v-34.059h-34.83V381.96h-59.527V237.09l73.143 93.229 28.64-21.484L242.298 0 0 308.835l28.64 21.484 73-93.047v241.289H86.442V512h62.694v-33.439h-18.998v-53.874h224.178v53.874h-17.098V512h62.694v-33.439h-17.098v-68.736h31.03v34.058h34.83v34.059h34.83V512H512v-61.924h-28.497zm-249.588-75.547h-75.518v-31.581h75.518v31.581zm0-48.301h-75.518v-31.581h75.518v31.581zm0-48.3h-75.518v-31.581h75.518v31.581zm92.616 96.601h-75.518v-31.581h75.518v31.581zm0-48.301h-75.518v-31.581h75.518v31.581zm0-48.3h-75.518v-31.581h75.518v31.581zM111.139 138.599l43.696-50.121V34.567h9.499V1.128H101.64v33.439h9.499z"/></svg>